#!OML:ASF F:\VICON\USERDATA\INSTALL\rory3\rory3.ASF
:FULLY-SPECIFIED
:DEGREES
493
root -2.12085 20.331 -34.0109 -291.082 34.7661 136.11
lowerback 61.4277 -17.3879 -46.7926
upperback 1.87093 -57.463 -21.8405
thorax -11.5209 -20.3902 11.0563
lowerneck -13.8535 -2.36257 -2.90742
upperneck 44.1144 -3.03385 0.436237
head 19.3747 -1.6148 0.151535
rclavicle 1.17283e-014 3.73715e-014
rhumerus 22.3387 -41.6048 12.3319
rradius 50.9472
rwrist -79.0126
rhand -20.5331 13.8291
rfingers 7.12502
rthumb 5.82509 -16.0708
lclavicle 1.17283e-014 3.73715e-014
lhumerus 36.8856 17.2141 -4.23679
lradius 52.0411
lwrist -15.7551
lhand -7.85641 17.8577
lfingers 7.12502
lthumb 18.047 47.0404
rfemur 78.6189 -26.1902 -142.053
rtibia -1.27222e-014
rfoot 40.6089 -22.3794
rtoes 27.7378
lfemur -45.2369 -66.6173 21.4673
ltibia 47.4666
lfoot -126.021 176.035
ltoes 4.94745
494
root -2.14607 20.0985 -34.0772 -288.843 34.5252 137.291
lowerback 60.3264 -18.5548 -45.515
upperback 2.90136 -57.0765 -22.5386
thorax -11.2565 -20.6022 10.4745
lowerneck -14.9589 -2.69826 -3.08265
upperneck 44.0529 -3.64595 0.900327
head 19.696 -1.79978 0.275897
rclavicle 3.96575e-014 9.22361e-014
rhumerus 20.0311 -42.0602 13.3754
rradius 50.4243
rwrist -78.8395
rhand -20.8608 13.764
rfingers 7.12502
rthumb 5.50871 -16.1444
lclavicle 3.96575e-014 9.22361e-014
lhumerus 35.8285 17.4383 -4.11952
lradius 51.217
lwrist -16.0837
lhand -8.52164 17.8114
lfingers 7.12502
lthumb 17.4069 47.052
rfemur 79.6858 -26.3823 -143.381
rtibia 6.36111e-015
rfoot 41.9294 -22.2063
rtoes 25.7836
lfemur -53.7996 -65.7225 30.8961
ltibia 46.9092
lfoot -125.269 174.898
ltoes 3.72801
495
root -2.167 19.8575 -34.1461 -286.872 34.2204 138.018
lowerback 59.2658 -19.549 -44.246
upperback 3.22771 -57.0011 -23.0282
thorax -11.6618 -20.6727 10.3298
lowerneck -14.4303 -2.88358 -3.56935
upperneck 43.8303 -3.93924 1.33117
head 19.4397 -1.93176 0.529919
rclavicle -3.46879e-014 5.725e-014
rhumerus 18.4519 -41.6902 14.0316
rradius 50.0965
rwrist -78.8705
rhand -21.4099 13.9363
rfingers 7.12502
rthumb 4.9786 -15.9852
lclavicle -3.46879e-014 5.725e-014
lhumerus 34.379 16.674 -3.97691
lradius 50.4466
lwrist -16.2446
lhand -8.59478 17.5581
lfingers 7.12502
lthumb 17.3365 46.8049
rfemur 80.9225 -27.0027 -144.571
rtibia -2.06736e-014
rfoot 43.5058 -21.509
rtoes 23.8884
lfemur -61.7629 -65.0267 39.9607
ltibia 46.3727
lfoot -123.294 173.55
ltoes 1.66107
496
root -2.18541 19.5602 -34.1889 -284.604 33.1736 139.379
lowerback 58.5742 -19.5435 -44.8132
upperback 3.42277 -56.5431 -22.7141
thorax -10.7237 -20.7922 9.88416
lowerneck -14.3355 -3.18062 -3.85022
upperneck 43.4992 -4.48139 1.80301
head 19.251 -2.1164 0.707778
rclavicle -1.31098e-013 -1.03368e-014
rhumerus 16.5659 -42.0586 14.5549
rradius 49.7396
rwrist -78.3364
rhand -21.4134 13.8296
rfingers 7.12502
rthumb 4.97519 -16.092
lclavicle -1.31098e-013 -1.03368e-014
lhumerus 33.4999 16.4275 -3.67208
lradius 49.3314
lwrist -16.3694
lhand -8.78497 16.6666
lfingers 7.12502
lthumb 17.1534 45.9294
rfemur 82.4525 -27.1288 -146.676
rtibia -3.18055e-014
rfoot 44.7796 -21.559
rtoes 23.2185
lfemur -70.8867 -64.7927 49.3127
ltibia 46.4747
lfoot -123.414 177.363
ltoes 8.92541
497
root -2.20146 19.2879 -34.2477 -281.683 33.0987 140.141
lowerback 56.9232 -21.0521 -43.0453
upperback 3.48077 -56.8033 -23.2526
thorax -11.5697 -20.9749 9.90568
lowerneck -12.5285 -3.22512 -4.3147
upperneck 43.2415 -4.58716 2.1633
head 18.6172 -2.19645 0.977218
rclavicle -3.06128e-014 3.33958e-014
rhumerus 15.4948 -40.9109 14.7217
rradius 49.7113
rwrist -78.6889
rhand -21.5096 13.9502
rfingers 7.12502
rthumb 4.88227 -15.9735
lclavicle -3.06128e-014 3.33958e-014
lhumerus 31.7009 14.6816 -4.0379
lradius 48.5193
lwrist -16.0355
lhand -8.89202 14.7667
lfingers 7.12502
lthumb 17.0504 44.0385
rfemur 85.3648 -27.6715 -148.193
rtibia -4.77083e-015
rfoot 45.7819 -21.999
rtoes 23.1573
lfemur -78.9277 -62.8152 58.5419
ltibia 46.8125
lfoot -123.375 176.927
ltoes 9.59032
498
root -2.22117 18.9523 -34.2748 -286.801 33.4993 141.994
lowerback 63.938 -17.0986 -45.5515
upperback 3.63856 -56.9433 -23.1989
thorax -11.7868 -19.8662 10.5006
lowerneck -12.9523 -3.38898 -4.18578
upperneck 43.6704 -4.97938 2.41285
head 19.0389 -2.28276 0.99834
rclavicle 1.49089e-015 -2.94201e-014
rhumerus 13.6179 -39.9395 14.899
rradius 49.7536
rwrist -79.3049
rhand -22.0597 14.2191
rfingers 7.12502
rthumb 4.35112 -15.7162
lclavicle 1.49089e-015 -2.94201e-014
lhumerus 30.4381 13.3167 -4.92699
lradius 47.6093
lwrist -15.4896
lhand -9.4994 15.1513
lfingers 7.12502
lthumb 16.4657 44.4726
rfemur 79.5062 -24.7486 -145.468
rtibia 3.18055e-015
rfoot 44.361 -23.0287
rtoes 29.8575
lfemur -84.2872 -69.4275 64.9473
ltibia 48.0564
lfoot -123.743 176.502
ltoes 10.6135
499
root -2.23139 18.6501 -34.3275 -287.566 32.7628 142.144
lowerback 64.9373 -15.4593 -46.8372
upperback 3.42844 -55.9248 -22.2403
thorax -10.8671 -19.4559 10.3411
lowerneck -14.1068 -3.79862 -4.33242
upperneck 43.5998 -5.68868 2.8191
head 19.397 -2.50573 1.06405
rclavicle 3.01159e-014 -6.59965e-014
rhumerus 11.311 -40.6177 15.5299
rradius 49.5908
rwrist -79.3751
rhand -22.1248 14.0213
rfingers 7.12502
rthumb 4.28823 -15.9152
lclavicle 3.01159e-014 -6.59965e-014
lhumerus 29.5134 13.283 -5.28877
lradius 46.4221
lwrist -15.6068
lhand -9.97922 15.2334
lfingers 7.12502
lthumb 16.0037 44.5924
rfemur 79.2735 -25.3296 -145.721
rtibia 3.65764e-014
rfoot 36.0188 -22.0429
rtoes 21.0172
lfemur -88.6743 -70.4887 69.4177
ltibia 49.1837
lfoot -124.768 175.807
ltoes 9.66022
500
root -2.23276 18.3306 -34.3835 -291.335 31.0723 141.858
lowerback 67.7528 -11.375 -50.3575
upperback 2.08324 -55.2264 -20.6978
thorax -10.3858 -18.5229 10.4896
lowerneck -13.3203 -3.67285 -4.37194
upperneck 43.1786 -5.58839 3.11968
head 18.9107 -2.43804 1.24944
rclavicle 3.80673e-014 -6.75868e-014
rhumerus 10.0949 -40.2946 15.2047
rradius 49.3566
rwrist -79.3561
rhand -21.9511 13.8304
rfingers 7.12502
rthumb 4.45595 -16.1027
lclavicle 3.80673e-014 -6.75868e-014
lhumerus 27.9922 11.9654 -6.02603
lradius 45.3068
lwrist -16.0528
lhand -10.338 14.9298
lfingers 7.12502
lthumb 15.6582 44.3162
rfemur 76.1377 -25.9105 -145.348
rtibia -2.38542e-015
rfoot 29.7229 -16.8334
rtoes 15.077
lfemur -89.3458 -74.5335 68.9397
ltibia 50.6579
lfoot -123.407 173.9
ltoes 7.6983
501
root -2.23565 18.0332 -34.4268 -298.903 28.5734 142.475
lowerback 73.2569 -4.3898 -55.3825
upperback 0.0222145 -54.8725 -18.7194
thorax -10.6151 -16.9324 10.5402
lowerneck -12.4908 -3.60452 -4.47278
upperneck 43.1647 -5.53697 3.30654
head 18.681 -2.4147 1.38395
rclavicle 1.76918e-014 1.16885e-013
rhumerus 9.15967 -39.4694 14.4686
rradius 49.1947
rwrist -79.495
rhand -21.8791 13.4323
rfingers 7.12502
rthumb 4.52548 -16.4994
lclavicle 1.76918e-014 1.16885e-013
lhumerus 26.3937 10.1399 -6.89384
lradius 44.2648
lwrist -16.7349
lhand -10.1543 14.3652
lfingers 7.12502
lthumb 15.835 43.7377
rfemur 68.1139 -24.5006 -144.217
rtibia -5.56597e-014
rfoot 23.8358 -16.2156
rtoes 16.8814
lfemur -83.6749 -83.2659 61.022
ltibia 51.3219
lfoot -121.667 170.548
ltoes 4.62551
